<?xml version="1.0" standalone="no"?>
<!DOCTYPE svg PUBLIC "-//W3C//DTD SVG 20010904//EN"
 "http://www.w3.org/TR/2001/REC-SVG-20010904/DTD/svg10.dtd">
<svg version="1.0" xmlns="http://www.w3.org/2000/svg"
 width="450.000000pt" height="450.000000pt" viewBox="0 0 450.000000 450.000000"
 preserveAspectRatio="xMidYMid meet">
<metadata>
Created by potrace 1.14, written by Peter Selinger 2001-2017
</metadata>
<g transform="translate(0.000000,450.000000) scale(0.100000,-0.100000)"
fill="#000000" stroke="none">
<path d="M2110 4303 c0 -5 -19 -9 -42 -8 -54 1 -113 -11 -158 -32 -31 -14
-120 -94 -120 -108 0 -9 -54 -90 -63 -93 -4 -2 -5 -7 -2 -12 3 -4 -2 -13 -10
-20 -8 -7 -15 -17 -15 -22 0 -13 -70 -131 -83 -139 -5 -3 -8 -8 -7 -10 2 -2
-7 -24 -19 -49 -11 -25 -22 -56 -23 -70 -2 -14 -7 -28 -12 -31 -4 -4 -9 -21
-10 -38 0 -17 -4 -31 -9 -31 -4 0 -5 -5 -1 -11 3 -6 1 -15 -6 -19 -14 -9 -50
-2 -50 10 0 15 -62 32 -117 34 -18 0 -33 3 -33 6 0 8 -323 5 -337 -3 -6 -4
-15 -3 -18 3 -5 8 -11 7 -21 -1 -11 -9 -14 -9 -14 0 0 7 -4 9 -10 6 -12 -7
-45 -14 -83 -17 -15 -1 -27 -6 -27 -11 0 -4 -4 -5 -10 -2 -5 3 -10 1 -10 -5 0
-6 -4 -8 -10 -5 -14 8 -121 -102 -145 -150 -11 -22 -26 -46 -33 -53 -7 -8 -10
-17 -7 -22 3 -4 -1 -10 -9 -13 -8 -3 -17 -19 -21 -36 -4 -17 -11 -31 -16 -31
-6 0 -7 -4 -4 -10 3 -5 3 -10 -2 -10 -4 0 -19 -21 -33 -47 -13 -27 -27 -50
-30 -53 -11 -10 -40 -86 -49 -130 -8 -37 -9 -125 -1 -125 1 0 3 -8 5 -18 2
-10 7 -26 11 -35 4 -9 8 -20 8 -23 2 -15 42 -79 49 -79 4 0 5 -5 1 -11 -3 -6
-2 -14 3 -18 5 -3 24 -33 43 -66 19 -33 36 -62 39 -65 4 -3 15 -22 26 -42 11
-21 23 -38 27 -38 5 0 8 -7 8 -15 0 -7 8 -19 18 -24 9 -6 13 -11 9 -11 -4 0 4
-12 18 -27 14 -15 25 -31 25 -35 0 -5 4 -8 9 -8 6 0 22 -11 37 -25 l26 -24
-58 -59 c-67 -66 -83 -86 -103 -125 -8 -15 -18 -27 -23 -27 -4 0 -8 -6 -8 -14
0 -8 -7 -22 -16 -30 -8 -9 -12 -16 -7 -16 4 0 4 -4 -2 -8 -16 -12 -85 -149
-78 -156 4 -3 1 -6 -5 -6 -10 0 -28 -38 -24 -52 1 -5 -2 -8 -7 -8 -11 0 -34
-98 -25 -111 3 -5 1 -9 -4 -9 -10 0 -9 -25 3 -90 7 -33 61 -150 75 -160 3 -3
9 -12 13 -20 4 -8 18 -33 31 -55 14 -22 35 -60 48 -85 13 -25 31 -52 40 -61
10 -9 18 -21 18 -26 0 -6 19 -31 43 -56 38 -41 91 -72 154 -91 13 -4 23 -11
23 -16 0 -4 8 -10 18 -13 35 -9 46 -117 26 -262 -7 -49 -11 -91 -9 -93 2 -2 0
-14 -5 -27 -8 -21 -19 -130 -24 -240 -1 -27 2 -66 6 -85 5 -19 10 -40 10 -45
1 -12 68 -80 68 -70 0 4 6 3 13 -3 18 -15 149 -10 155 6 2 6 9 12 16 12 15 0
43 47 51 86 7 36 7 136 -1 229 -3 39 -7 95 -9 125 -2 30 -4 55 -5 55 -2 0 -8
40 -14 93 -2 18 -6 36 -9 39 -3 3 -2 16 3 29 6 14 6 24 1 24 -11 0 13 108 25
120 19 16 76 29 92 21 10 -5 26 -7 37 -5 11 2 39 6 62 8 38 5 79 21 93 37 3 3
13 8 22 12 25 9 33 -7 41 -78 2 -17 7 -36 11 -43 4 -6 9 -21 11 -33 6 -28 51
-121 97 -198 21 -34 38 -66 38 -70 0 -4 9 -17 20 -29 12 -12 18 -22 15 -22 -4
0 0 -7 7 -15 30 -33 38 -45 38 -55 0 -5 5 -10 10 -10 6 0 10 -7 10 -16 0 -8 4
-12 10 -9 5 3 10 -1 10 -9 0 -8 9 -17 19 -21 11 -3 22 -12 25 -20 3 -8 14 -15
25 -15 11 0 21 -5 23 -10 2 -6 13 -12 26 -13 12 0 22 -4 22 -7 0 -6 37 -10
127 -14 18 -1 35 -4 38 -8 4 -3 19 -3 33 1 15 5 35 5 46 2 21 -8 64 -6 94 3
11 4 23 2 27 -4 3 -6 11 -8 16 -4 5 3 38 8 72 10 71 5 176 39 195 62 6 9 12
12 12 8 0 -4 16 9 35 28 19 20 35 38 35 40 0 1 25 40 55 85 30 46 53 87 50 92
-4 5 -2 9 4 9 6 0 19 17 29 38 10 20 33 63 50 95 18 31 29 57 25 57 -4 0 -2 4
4 8 7 4 15 19 17 32 2 14 5 25 6 25 1 0 3 10 6 22 8 43 9 47 19 59 8 9 20 8
50 -4 22 -9 43 -20 46 -25 3 -5 9 -8 13 -8 21 3 25 -4 32 -46 4 -27 8 -55 9
-63 0 -9 4 -20 8 -26 3 -6 3 -14 -1 -18 -7 -8 -10 -62 -13 -263 -1 -86 2 -127
11 -138 7 -8 10 -15 6 -15 -3 0 3 -9 14 -20 28 -28 81 -32 117 -10 33 20 34
23 32 130 -1 106 -3 130 -11 130 -3 0 -5 8 -3 18 1 9 0 21 -3 27 -7 11 -17
132 -12 145 1 3 3 15 6 28 6 33 26 50 53 45 23 -3 58 -40 53 -56 -1 -4 2 -7 7
-7 5 0 11 -7 13 -17 2 -9 19 -21 38 -28 32 -11 37 -9 67 18 18 17 33 36 33 42
0 7 7 18 15 25 8 7 12 16 9 21 -3 5 0 9 5 9 6 0 11 6 11 13 0 18 34 57 49 57
6 0 11 4 11 8 0 4 12 9 27 10 14 1 34 8 42 16 9 7 26 17 39 21 13 4 21 9 18
12 -2 3 10 19 28 37 18 17 43 48 55 69 13 20 27 37 32 37 5 0 8 3 7 8 -3 14
14 62 22 62 4 0 18 19 30 43 12 23 25 44 29 47 3 3 26 45 50 94 40 80 45 96
45 160 0 39 -3 84 -7 100 -9 41 -99 216 -110 216 -6 0 -8 3 -5 6 4 3 -3 20
-15 39 -12 18 -44 69 -72 113 -27 45 -56 81 -62 82 -7 0 -13 6 -13 13 -1 6
-19 26 -40 42 -38 29 -53 65 -27 65 15 0 77 57 77 71 0 6 5 7 10 4 6 -3 10 -1
10 4 0 6 9 20 20 31 11 11 18 20 15 20 -3 0 4 9 15 20 12 12 18 25 15 30 -4 6
-2 10 4 10 6 0 20 17 31 38 29 54 44 76 55 84 6 4 6 8 2 8 -5 0 0 12 11 28 21
30 74 139 80 162 2 8 4 34 5 57 1 24 6 43 10 43 4 0 3 9 -3 20 -6 10 -12 33
-14 51 -2 17 -8 34 -12 38 -5 3 -11 15 -12 26 -2 11 -8 23 -14 26 -5 3 -10 9
-10 12 0 19 -12 47 -19 47 -5 0 -8 3 -7 8 3 10 -39 89 -52 97 -6 4 -8 11 -5
16 4 5 1 9 -5 9 -6 0 -16 14 -21 30 -6 17 -15 30 -20 30 -5 0 -8 3 -7 8 3 10
-35 72 -44 72 -4 0 -8 7 -8 15 0 8 -4 15 -10 15 -5 0 -10 4 -10 10 0 5 -11 20
-25 34 -14 14 -25 23 -25 20 0 -3 -7 2 -16 10 -8 9 -19 14 -24 11 -5 -3 -10 0
-12 7 -4 12 -10 13 -88 24 -58 8 -364 7 -455 -2 -85 -8 -101 -11 -118 -21 -26
-16 -56 -13 -67 7 -6 11 -9 20 -6 20 3 0 -2 24 -11 53 -8 28 -16 57 -17 62 -1
6 -6 17 -11 25 -5 8 -10 21 -11 27 -1 7 -9 20 -18 29 -15 14 -20 28 -17 47 0
4 -3 7 -9 7 -5 0 -10 7 -10 15 0 8 -4 15 -8 15 -4 0 -13 12 -19 28 -15 34 -35
65 -48 74 -5 4 -6 8 -1 8 4 0 -3 15 -18 34 -14 19 -26 38 -26 41 0 4 -6 12
-12 19 -7 8 -20 24 -28 36 -8 13 -26 33 -39 44 -13 12 -29 27 -37 34 -7 6 -17
12 -23 12 -6 0 -11 4 -11 9 0 14 -84 31 -171 35 -30 2 -61 6 -67 10 -6 3 -14
2 -17 -4 -5 -8 -11 -8 -20 0 -9 8 -15 8 -20 0 -3 -6 -11 -8 -16 -4 -15 9 -59
12 -59 4 0 -8 -75 -4 -90 5 -6 3 -10 2 -10 -2z"/>
</g>
</svg>
